<svg width="267" height="179" viewBox="0 0 267 179" fill="none" xmlns="http://www.w3.org/2000/svg">
<path d="M26.3367 40.6558C23.9168 42.9068 22.7053 44.0338 22.2598 44.4414C18.4304 47.9476 18.6925 47.435 17.0181 49.1007C14.9272 51.18 13.5119 52.9767 12.3588 54.9249C10.8649 57.4496 10.8066 58.5475 10.9027 59.293C11.0775 60.6325 11.7676 60.883 11.7764 62.205C11.788 63.8445 10.7426 65.1229 10.0291 65.9907C8.83809 67.4467 8.46534 67.074 7.40826 68.3204C5.77168 70.2481 6.47058 71.3576 4.78741 73.2709C3.72159 74.4823 3.35467 74.1387 2.45776 75.3093C0.9959 77.2196 0.990076 79.4211 1.00172 79.9686C1.05123 82.0799 1.98891 83.6 2.45776 84.3367C3.63132 86.1859 4.40301 85.9762 5.36982 87.8312C6.19393 89.4066 5.97553 90.2074 6.82585 90.7432C7.72859 91.3111 8.60512 90.8073 10.0291 90.7432C11.9365 90.6588 12.6849 91.4567 15.2708 92.4905C19.0623 94.0048 19.2778 93.0176 23.4246 94.5289C26.9628 95.819 26.724 96.5091 28.9575 96.8586C32.5015 97.4119 33.7158 95.7695 35.6553 96.8586C37.7199 98.0176 37.0822 100.289 39.441 101.518C39.5662 101.582 41.5842 102.598 43.5179 101.809C46.0368 100.781 45.501 97.8749 47.8859 96.8586C49.2197 96.2878 49.5953 97.1119 53.1277 97.1498C54.6012 97.1673 56.4154 97.1876 58.3694 96.5674C59.8866 96.0869 60.7573 95.4521 64.1935 92.7817C69.3886 88.7456 69.1353 88.8475 69.4352 88.7048C74.4789 86.282 80.3584 88.6873 81.0835 88.996C82.4434 89.5726 81.6921 89.494 87.7812 93.0729C90.6729 94.7735 91.6484 95.2657 93.0229 95.6938C95.536 96.4771 95.9758 95.985 97.391 96.8586C97.391 96.8586 98.3083 97.4264 101.177 101.227C103.69 99.6367 104.753 99.692 105.254 100.062C106.477 100.967 104.683 103.99 105.254 109.38C105.428 111.023 105.807 114.284 107.583 114.913C108.777 115.336 109.91 114.325 110.495 114.913C111.081 115.502 110.128 116.701 110.204 118.699C110.257 120.076 110.766 121.049 111.369 122.194C112.735 124.794 114.089 125.435 115.446 127.144C117.976 130.333 118.967 135.292 117.484 136.463C115.955 137.671 111.497 135.082 111.66 134.424C111.762 134.017 113.696 134.107 113.699 134.133C113.699 134.168 109.729 135.458 106.418 133.842C104.965 133.131 102.936 131.521 102.924 131.512C103.509 139.45 102.047 142.272 100.303 143.16C98.8121 143.92 96.6164 143.519 95.935 144.908C95.3264 146.148 96.6339 147.365 95.935 148.402C95.1517 149.567 93.1714 148.53 92.1493 149.858C91.6048 150.566 91.3019 151.987 91.6746 153.152C91.8057 153.565 91.9571 153.737 91.8581 153.935C91.4766 154.713 88.5704 153.294 87.7812 154.226C87.1144 155.015 88.1627 157.246 89.5285 158.594C91.3252 160.368 93.6345 160.572 94.479 160.633C96.9746 160.816 98.8878 159.887 99.7207 159.468C102.915 157.866 102.872 156.017 104.962 155.682C107.676 155.245 109.022 158.152 110.787 157.43C112.633 156.675 111.503 153.347 114.281 150.441C115.431 149.235 115.708 149.721 117.775 148.111C120.632 145.886 120.248 144.849 123.017 142.287C125.985 139.544 127.548 139.695 128.259 137.627C128.949 135.621 127.729 134.753 128.55 133.259C129.13 132.208 130.061 132.039 135.539 130.639C140.032 129.491 140.967 129.206 142.237 129.765C143.011 130.106 143.725 130.866 145.149 132.386C146.25 133.559 147.225 134.599 148.061 136.171C149.205 138.323 148.643 138.757 149.517 139.957C151.017 142.019 153.853 142.362 155.632 142.578C158.311 142.904 160.574 142.392 162.33 141.996C165.367 141.311 165.693 140.694 167.281 140.831C169.904 141.058 172.677 143.064 172.522 144.616C172.461 145.228 171.969 145.522 165.533 148.985C164.45 149.567 163.32 150.176 162.039 151.314C160.988 152.249 159.709 153.935 159.709 153.935L155.341 156.847C155.341 156.847 156.983 158.591 158.836 159.177C160.51 159.707 160.865 158.816 162.912 159.177C164.578 159.471 164.549 160.1 166.698 160.924C169.762 162.1 170.845 161.218 171.94 162.38C172.802 163.294 172.805 164.555 172.813 167.039C172.819 169.156 172.435 170.895 172.231 171.699C171.503 174.573 170.749 174.873 171.066 175.776C171.713 177.613 175.37 177.852 179.22 178.105C183.009 178.353 183.871 177.759 184.171 177.523C185.72 176.305 184.864 174.791 186.5 172.863C187.141 172.109 187.222 172.4 191.742 169.951C193.987 168.734 194.444 168.405 195.528 168.204C197.7 167.802 198.105 168.711 199.313 168.204C201.611 167.237 200.836 163.655 203.39 162.38C204.421 161.865 205.493 161.975 206.593 162.089C208.722 162.307 209.098 163.155 210.962 163.545C211.235 163.603 214.782 164.299 216.786 162.38C217.487 161.707 217.362 161.323 218.533 157.721C219.671 154.212 220.097 153.632 219.698 153.061C219.072 152.167 217.345 152.616 213.582 153.061C208.862 153.621 209.669 153.146 206.011 153.644C199.115 154.584 197.135 156.154 195.528 154.809C194.133 153.641 195.117 152.031 193.198 149.858C192.144 148.667 191.637 148.912 189.412 147.237C187.199 145.572 185.507 144.302 185.627 142.869C185.699 141.978 186.841 141.099 189.121 139.375C190.539 138.303 191.127 137.983 192.033 137.336C195.865 134.608 197.755 131.533 198.148 131.803C198.472 132.028 197.12 134.054 197.566 134.424C198.172 134.931 201.529 131.882 201.934 131.512C205.132 128.609 204.989 127.68 206.593 127.144C209.051 126.323 210.298 128.198 212.418 127.144C214.121 126.297 213.777 124.864 215.621 123.941C217.339 123.082 217.98 124.156 220.28 123.65C223.408 122.962 223.521 120.691 226.687 120.155C228.51 119.846 229.022 120.505 230.181 119.864C231.917 118.903 231.238 117.167 232.802 115.787C235.376 113.518 240.956 114.913 240.956 114.913C240.33 116.253 242.313 112.263 242.703 110.836C243.597 107.578 241.765 106.649 242.703 104.721C243.85 102.362 246.78 103.361 248.527 100.644C249.823 98.6262 248.859 97.0653 250.274 95.985C250.979 95.4462 252.307 95.5219 254.934 95.6938C258.967 95.9588 261.34 96.2762 261.34 96.2762C263.242 96.5324 263.763 96.6664 264.252 96.2762C265.138 95.5714 264.567 94.2348 264.835 91.3257C265.103 88.4136 265.784 88.5475 265.708 86.6664C265.592 83.7601 263.891 81.5062 263.379 80.8422C261.666 78.6291 260.49 78.795 260.175 77.3478C259.736 75.321 261.917 74.4328 261.631 72.106C261.361 69.89 259.15 68.83 259.593 68.0292C259.957 67.3652 261.416 68.1893 263.087 67.4467C264.782 66.6925 266.029 64.6279 266 62.7874C265.962 60.5073 263.961 58.1311 263.961 58.1281C263.961 58.1281 261.984 57.8661 260.467 57.2545C258.728 56.5527 258.874 55.9091 256.972 54.9249C255.522 54.1736 255.309 54.4822 253.478 53.76C250.848 52.7204 250.932 51.9429 248.818 51.1392C246.154 50.1258 245.81 51.279 243.577 50.2656C241.445 49.2988 241.267 48.0233 238.917 47.3535C238.015 47.0972 236.786 46.7449 236.005 47.3535C234.654 48.4077 236.227 51.1159 235.132 52.0128C233.824 53.0815 229.174 51.2003 227.851 47.9359C227.17 46.2557 227.796 45.251 226.687 43.5678C226.425 43.1718 225.391 41.5993 223.483 41.2382C221.113 40.7897 219.255 42.5573 219.115 42.6942C217.744 44.0425 218.274 45.12 217.077 45.8975C215.481 46.9313 213.055 45.9732 212.126 45.6063C210.996 45.1578 207.892 43.2126 208.923 43.859C208.923 43.859 207.33 42.071 205.72 41.8206C204.086 41.5643 203.638 43.0757 200.478 43.859C199.287 44.1531 198.294 44.3861 197.566 43.859C196.832 43.3261 196.853 42.3768 196.692 40.3646C196.692 40.3646 196.497 37.9417 195.819 33.958C195.236 30.5451 194.741 29.7705 194.363 29.2987C193.623 28.3756 192.729 27.8456 191.742 27.2603C190.929 26.7769 189.762 26.0867 188.247 25.8042C186.541 25.4839 186.145 26.011 183.879 26.0954C181.774 26.1741 179.336 26.2673 178.346 24.9306C177.115 23.2649 178.346 19.6802 178.346 19.6889C176.698 17.0884 176.89 16.4856 176.89 16.4856C177.275 15.2713 179.802 14.7384 179.802 14.7384C180.446 17.0127 178.734 10.0383 177.473 8.04065C176.66 6.75352 176.57 7.14956 174.852 4.83738C172.851 2.14372 173.046 1.704 172.231 1.34291C170.161 0.422695 168.591 3.128 165.533 2.50773C163.536 2.10296 163.058 0.716813 161.748 1.0517C160.187 1.45357 160.495 3.51531 158.836 4.25497C158.836 4.25497 157.808 4.71216 152.429 2.50773C152.429 2.50773 152.307 6.38951 150.391 8.04065C148.844 9.37147 146.084 9.29284 144.275 8.33186C142.557 7.41747 142.81 6.29924 141.072 5.4198C139.421 4.58403 137.211 4.59568 135.539 5.4198C132.714 6.81467 131.171 10.6615 131.171 10.6615C131.171 10.6615 128.276 11.7157 126.803 13.8648C125.784 15.3499 125.679 17.0185 125.638 17.6505C125.533 19.3278 125.929 21.4361 125.929 21.4361C121.681 20.5858 120.688 20.5625 120.688 20.5625C119.042 20.5218 117.551 21.0226 114.572 22.0186C110.187 23.4862 109.293 24.3715 108.166 23.7658C106.314 22.7699 105.836 18.8153 105.836 18.8153C105.836 18.8153 102.484 18.6872 99.7207 18.2329C94.7119 17.4117 93.5733 15.845 91.8581 16.7768C90.2332 17.6592 90.2448 19.6132 88.946 19.6889C87.8569 19.753 87.6909 18.3872 86.034 17.6505C83.6257 16.5817 81.7008 18.46 80.5011 17.3593C79.3974 16.3488 80.5447 14.3307 79.3362 13.2824C78.5645 12.6155 77.4667 12.8834 76.4242 12.9912C72.6094 13.3814 72.0619 11.3255 65.6495 10.0791C62.6851 9.50251 62.7025 9.92476 59.243 9.20548C55.9873 8.52988 55.8417 8.13093 53.4189 7.74945C50.402 7.27478 48.1102 7.49901 45.5563 7.74945C41.9745 8.09889 40.1573 8.29983 38.8586 9.49668C37.5219 10.7285 37.8684 11.6487 36.5289 12.4087C34.5196 13.5474 32.6267 12.1059 31.2872 13.2824C30.9144 13.6114 30.6757 14.0628 30.4136 16.1944C29.9185 20.2276 29.671 22.2428 30.4136 23.4746C31.922 25.9731 34.9855 24.9539 35.9465 27.2603C36.7939 29.2958 35.1631 31.8934 34.7817 32.502C33.6605 34.29 31.5784 35.9965 31.5784 35.9965L26.3367 40.6558Z" stroke="#F8F5F5" stroke-miterlimit="10"/>
</svg>
