<svg width="536" height="359" viewBox="0 0 536 359" fill="none" xmlns="http://www.w3.org/2000/svg">
<path d="M52.0558 80.9101C47.1794 85.4461 44.7383 87.7171 43.8405 88.5386C36.1239 95.6038 36.6521 94.571 33.2779 97.9275C29.0646 102.117 26.2128 105.738 23.889 109.664C20.8787 114.751 20.7613 116.964 20.955 118.466C21.307 121.165 22.6978 121.67 22.7154 124.334C22.7389 127.638 20.6322 130.214 19.1945 131.962C16.7945 134.896 16.0434 134.145 13.9133 136.657C10.6154 140.542 12.0237 142.777 8.63198 146.633C6.48426 149.074 5.74489 148.381 3.93752 150.74C0.991739 154.59 0.980002 159.026 1.00347 160.129C1.10323 164.384 2.99275 167.447 3.93752 168.931C6.30235 172.658 7.8574 172.235 9.8056 175.973C11.4663 179.148 11.0262 180.761 12.7396 181.841C14.5587 182.985 16.325 181.97 19.1945 181.841C23.0381 181.671 24.5462 183.279 29.7571 185.362C37.3973 188.413 37.8316 186.424 46.1877 189.47C53.3174 192.069 52.8362 193.46 57.3371 194.164C64.4785 195.279 66.9255 191.969 70.8337 194.164C74.9941 196.5 73.709 201.077 78.4622 203.553C78.7145 203.682 82.7811 205.73 86.6775 204.14C91.7534 202.068 90.6736 196.212 95.4796 194.164C98.1672 193.014 98.9242 194.675 106.042 194.751C109.011 194.786 112.667 194.827 116.605 193.577C119.662 192.609 121.417 191.33 128.341 185.949C138.81 177.816 138.299 178.021 138.903 177.733C149.067 172.851 160.915 177.698 162.376 178.32C165.116 179.482 163.602 179.324 175.872 186.536C181.699 189.963 183.665 190.954 186.435 191.817C191.499 193.395 192.385 192.404 195.237 194.164C195.237 194.164 197.085 195.308 202.866 202.966C207.93 199.762 210.072 199.874 211.081 200.619C213.545 202.444 209.931 208.535 211.081 219.397C211.433 222.706 212.196 229.279 215.775 230.546C218.181 231.397 220.464 229.361 221.643 230.546C222.823 231.732 220.904 234.149 221.057 238.175C221.162 240.95 222.189 242.91 223.404 245.216C226.156 250.457 228.885 251.748 231.619 255.192C236.718 261.618 238.714 271.611 235.727 273.97C232.646 276.405 223.662 271.189 223.991 269.862C224.196 269.041 228.092 269.223 228.098 269.276C228.098 269.346 220.1 271.945 213.428 268.689C210.5 267.257 206.41 264.012 206.386 263.994C207.566 279.991 204.62 285.677 201.105 287.467C198.101 288.998 193.676 288.188 192.303 290.987C191.077 293.487 193.711 295.94 192.303 298.029C190.724 300.376 186.734 298.287 184.674 300.963C183.577 302.389 182.967 305.253 183.718 307.6C183.982 308.433 184.287 308.779 184.088 309.178C183.319 310.745 177.463 307.888 175.872 309.765C174.529 311.356 176.641 315.851 179.393 318.567C183.014 322.141 187.667 322.552 189.369 322.675C194.398 323.045 198.253 321.173 199.931 320.328C206.369 317.1 206.281 313.374 210.494 312.699C215.963 311.819 218.674 317.675 222.23 316.22C225.951 314.7 223.674 307.993 229.272 302.137C231.59 299.707 232.147 300.687 236.314 297.442C242.07 292.959 241.296 290.87 246.876 285.706C252.856 280.178 256.007 280.484 257.439 276.317C258.829 272.274 256.371 270.525 258.025 267.515C259.193 265.397 261.071 265.056 272.109 262.234C281.163 259.922 283.047 259.347 285.605 260.473C287.166 261.16 288.604 262.692 291.474 265.755C293.692 268.12 295.658 270.214 297.342 273.383C299.648 277.72 298.515 278.594 300.276 281.012C303.298 285.166 309.013 285.859 312.599 286.293C317.997 286.95 322.557 285.917 326.095 285.119C332.216 283.74 332.873 282.496 336.071 282.772C341.358 283.23 346.945 287.273 346.634 290.401C346.51 291.633 345.519 292.226 332.55 299.203C330.367 300.376 328.09 301.603 325.508 303.897C323.39 305.781 320.814 309.178 320.814 309.178L312.012 315.047C312.012 315.047 315.321 318.562 319.054 319.741C322.428 320.809 323.144 319.013 327.269 319.741C330.625 320.334 330.567 321.601 334.897 323.262C341.071 325.633 343.254 323.855 345.46 326.196C347.197 328.039 347.203 330.579 347.22 335.585C347.232 339.851 346.457 343.354 346.047 344.974C344.58 350.766 343.06 351.37 343.7 353.189C345.002 356.892 352.373 357.373 360.13 357.884C367.765 358.382 369.501 357.185 370.106 356.71C373.228 354.257 371.502 351.206 374.8 347.321C376.091 345.801 376.256 346.388 385.363 341.453C389.887 339 390.808 338.337 392.991 337.932C397.369 337.122 398.185 338.953 400.62 337.932C405.25 335.984 403.689 328.766 408.835 326.196C410.913 325.157 413.072 325.38 415.29 325.609C419.58 326.049 420.337 327.757 424.092 328.543C424.644 328.661 431.791 330.063 435.828 326.196C437.243 324.84 436.99 324.066 439.349 316.807C441.644 309.736 442.5 308.568 441.696 307.418C440.435 305.617 436.955 306.52 429.374 307.418C419.861 308.545 421.487 307.588 414.116 308.592C400.221 310.487 396.231 313.65 392.991 310.939C390.181 308.586 392.164 305.341 388.297 300.963C386.173 298.563 385.152 299.056 380.668 295.682C376.209 292.325 372.799 289.767 373.04 286.88C373.187 285.084 375.487 283.312 380.082 279.838C382.939 277.679 384.125 277.033 385.95 275.73C393.672 270.232 397.48 264.035 398.273 264.581C398.924 265.033 396.201 269.117 397.099 269.862C398.32 270.883 405.086 264.739 405.901 263.994C412.344 258.144 412.057 256.272 415.29 255.192C420.243 253.537 422.754 257.316 427.026 255.192C430.459 253.485 429.767 250.597 433.481 248.737C436.943 247.006 438.234 249.171 442.87 248.15C449.172 246.766 449.401 242.188 455.78 241.109C459.453 240.487 460.486 241.813 462.822 240.522C466.319 238.585 464.952 235.088 468.103 232.307C473.29 227.735 484.533 230.546 484.533 230.546C483.272 233.245 487.268 225.206 488.054 222.331C489.856 215.764 486.165 213.893 488.054 210.008C490.366 205.255 496.27 207.267 499.79 201.793C502.402 197.726 500.459 194.581 503.311 192.404C504.731 191.318 507.407 191.471 512.7 191.817C520.828 192.351 525.61 192.99 525.61 192.99C529.442 193.507 530.492 193.777 531.478 192.99C533.262 191.57 532.112 188.877 532.652 183.015C533.192 177.147 534.565 177.417 534.412 173.626C534.177 167.769 530.751 163.228 529.718 161.89C526.267 157.43 523.897 157.764 523.263 154.848C522.377 150.764 526.772 148.974 526.197 144.285C525.651 139.82 521.197 137.684 522.089 136.07C522.823 134.732 525.763 136.393 529.131 134.896C532.546 133.377 535.058 129.216 534.999 125.508C534.923 120.913 530.891 116.124 530.891 116.119C530.891 116.119 526.907 115.59 523.85 114.358C520.346 112.944 520.64 111.647 516.808 109.664C513.886 108.15 513.457 108.772 509.766 107.316C504.467 105.222 504.638 103.655 500.377 102.035C495.008 99.9931 494.316 102.317 489.815 100.275C485.519 98.3266 485.161 95.7563 480.426 94.4067C478.607 93.8903 476.13 93.1803 474.558 94.4067C471.835 96.5309 475.004 101.988 472.797 103.796C470.163 105.949 460.791 102.158 458.127 95.5803C456.754 92.1944 458.016 90.1699 455.78 86.7782C455.252 85.9801 453.169 82.8114 449.325 82.0837C444.548 81.18 440.805 84.742 440.523 85.0178C437.759 87.7347 438.827 89.9059 436.415 91.4726C433.199 93.5558 428.311 91.6252 426.439 90.8858C424.163 89.9822 417.907 86.0623 419.985 87.365C419.985 87.365 416.775 83.762 413.53 83.2573C410.238 82.7409 409.334 85.7865 402.967 87.365C400.567 87.9577 398.566 88.4271 397.099 87.365C395.62 86.2911 395.661 84.3781 395.339 80.3233C395.339 80.3233 394.945 75.441 393.578 67.4135C392.405 60.5361 391.407 58.9752 390.644 58.0246C389.154 56.1644 387.352 55.0964 385.363 53.9169C383.726 52.9428 381.373 51.5521 378.321 50.9829C374.882 50.3374 374.084 51.3995 369.519 51.5697C365.276 51.7281 360.365 51.9159 358.37 49.2225C355.888 45.8659 358.37 38.6423 358.37 38.6599C355.048 33.4197 355.436 32.205 355.436 32.205C356.21 29.758 361.304 28.6842 361.304 28.6842C362.601 33.2671 359.15 19.2131 356.609 15.1876C354.972 12.5939 354.79 13.3919 351.328 8.73269C347.297 3.30471 347.69 2.41863 346.047 1.69099C341.875 -0.163325 338.712 5.28812 332.55 4.03822C328.525 3.22256 327.562 0.429352 324.922 1.10418C321.776 1.91398 322.398 6.06858 319.054 7.55907C319.054 7.55907 316.982 8.48036 306.144 4.03822C306.144 4.03822 305.897 11.8604 302.036 15.1876C298.92 17.8693 293.357 17.7109 289.713 15.7744C286.251 13.9318 286.761 11.6785 283.258 9.9063C279.931 8.22216 275.477 8.24564 272.109 9.9063C266.417 12.7171 263.307 20.4689 263.307 20.4689C263.307 20.4689 257.474 22.5931 254.505 26.9237C252.451 29.9165 252.24 33.2789 252.157 34.5522C251.946 37.9323 252.744 42.1808 252.744 42.1808C244.183 40.4673 242.182 40.4203 242.182 40.4203C238.866 40.3382 235.862 41.3475 229.859 43.3544C221.021 46.3119 219.22 48.0958 216.949 46.8752C213.217 44.8683 212.254 36.8995 212.254 36.8995C212.254 36.8995 205.5 36.6413 199.931 35.7259C189.838 34.0711 187.544 30.914 184.088 32.7918C180.813 34.5699 180.837 38.5073 178.22 38.6599C176.025 38.789 175.69 36.0369 172.351 34.5522C167.499 32.3987 163.62 36.1836 161.202 33.9654C158.978 31.9292 161.29 27.8626 158.855 25.7501C157.3 24.4063 155.088 24.9462 152.987 25.1633C145.3 25.9496 144.196 21.8068 131.275 19.2952C125.301 18.1334 125.336 18.9842 118.365 17.5348C111.805 16.1734 111.511 15.3695 106.629 14.6008C100.55 13.6443 95.9314 14.0961 90.7851 14.6008C83.5674 15.3049 79.9057 15.7098 77.2885 18.1216C74.5951 20.6038 75.2934 22.4581 72.5941 23.9897C68.5451 26.2841 64.7309 23.3794 62.0315 25.7501C61.2804 26.4132 60.7992 27.3228 60.2711 31.6182C59.2735 39.7455 58.7747 43.8062 60.2711 46.2884C63.3108 51.3232 69.484 49.2694 71.4205 53.9169C73.1281 58.0187 69.842 63.253 69.0732 64.4795C66.814 68.0825 62.6183 71.5212 62.6183 71.5212L52.0558 80.9101Z" stroke="url(#paint0_linear_2803_975)" stroke-width="2" stroke-miterlimit="10"/>
<defs>
<linearGradient id="paint0_linear_2803_975" x1="173.986" y1="1.00016" x2="406.865" y2="33.1532" gradientUnits="userSpaceOnUse">
<stop stop-color="#E32F7A"/>
<stop offset="0.271875" stop-color="#F16E74"/>
<stop offset="1" stop-color="#FBB663"/>
</linearGradient>
</defs>
</svg>
