<svg width="30" height="23" viewBox="0 0 30 23" fill="none" xmlns="http://www.w3.org/2000/svg">
<path id="Vector" d="M2.63833 20.8681C0.921667 19.0448 0 16.9998 0 13.6848C0 7.85142 4.095 2.62309 10.05 0.0380859L11.5383 2.33475C5.98 5.34142 4.89333 9.24308 4.46 11.7031C5.355 11.2398 6.52667 11.0781 7.675 11.1848C10.6817 11.4631 13.0517 13.9314 13.0517 16.9998C13.0517 18.5468 12.4371 20.0306 11.3431 21.1245C10.2492 22.2185 8.76543 22.8331 7.21833 22.8331C6.36276 22.8256 5.51723 22.648 4.73094 22.3107C3.94465 21.9733 3.23331 21.4829 2.63833 20.8681ZM19.305 20.8681C17.5883 19.0448 16.6667 16.9998 16.6667 13.6848C16.6667 7.85142 20.7617 2.62309 26.7167 0.0380859L28.205 2.33475C22.6467 5.34142 21.56 9.24308 21.1267 11.7031C22.0217 11.2398 23.1933 11.0781 24.3417 11.1848C27.3483 11.4631 29.7183 13.9314 29.7183 16.9998C29.7183 18.5468 29.1038 20.0306 28.0098 21.1245C26.9158 22.2185 25.4321 22.8331 23.885 22.8331C23.0294 22.8256 22.1839 22.648 21.3976 22.3107C20.6113 21.9733 19.9 21.4829 19.305 20.8681Z" fill="#E32F7A"/>
</svg>
